<svg xmlns="http://www.w3.org/2000/svg" width="800" height="800" fill="none" viewBox="0 0 24 24"><path fill="#fff" fill-rule="evenodd" d="M12 8a4 4 0 1 0 0 8 4 4 0 0 0 0-8m-2 4a2 2 0 1 1 4 0 2 2 0 0 1-4 0" clip-rule="evenodd"/><path fill="#fff" fill-rule="evenodd" d="M11.287.5c-1.401 0-2.64.967-2.915 2.356l-.08.4c-.187.95-1.23 1.575-2.247 1.232l-.397-.134c-1.326-.446-2.81.076-3.53 1.285l-.713 1.198a2.87 2.87 0 0 0 .634 3.677l.318.267a1.573 1.573 0 0 1 0 2.438l-.318.267a2.87 2.87 0 0 0-.634 3.677l.713 1.198c.72 1.21 2.205 1.731 3.53 1.284l.397-.133c1.017-.343 2.06.282 2.248 1.232l.079.4c.274 1.389 1.514 2.356 2.915 2.356h1.427c1.4 0 2.64-.968 2.915-2.356l.079-.4c.187-.95 1.23-1.575 2.247-1.232l.397.133c1.326.447 2.81-.075 3.53-1.284l.713-1.198a2.87 2.87 0 0 0-.634-3.677l-.318-.267a1.573 1.573 0 0 1 0-2.438l.318-.267a2.87 2.87 0 0 0 .635-3.677l-.714-1.198c-.72-1.21-2.204-1.731-3.53-1.285l-.397.134c-1.017.343-2.06-.282-2.247-1.232l-.08-.4C15.355 1.468 14.116.5 12.715.5zm-.953 2.744c.08-.41.464-.744.953-.744h1.427c.488 0 .871.333.953.744l.079.4c.433 2.194 2.745 3.448 4.847 2.74l.398-.134a1 1 0 0 1 1.173.413l.713 1.198a.87.87 0 0 1-.2 1.12l-.318.267a3.573 3.573 0 0 0 0 5.504l.317.267a.87.87 0 0 1 .201 1.12l-.713 1.198a1 1 0 0 1-1.174.413l-.396-.134c-2.103-.708-4.415.546-4.848 2.74l-.08.4c-.08.41-.464.744-.952.744h-1.427c-.489 0-.872-.333-.953-.744l-.08-.4c-.433-2.194-2.745-3.448-4.847-2.74l-.397.134a1 1 0 0 1-1.173-.413l-.714-1.198a.87.87 0 0 1 .201-1.12l.318-.267a3.573 3.573 0 0 0 0-5.504l-.318-.267a.87.87 0 0 1-.2-1.12l.713-1.198A1 1 0 0 1 5.01 6.25l.397.134c2.102.708 4.414-.546 4.848-2.74z" clip-rule="evenodd"/></svg>